<mxfile host="app.diagrams.net" modified="2023-11-09T20:04:36.677Z" agent="Mozilla/5.0 (Windows NT 10.0; Win64; x64) AppleWebKit/537.36 (KHTML, like Gecko) Chrome/119.0.0.0 Safari/537.36" version="22.1.0" etag="5uebxFh_qqi9a-EaxeEr" type="github">
  <diagram name="Page-1" id="LYR_MWIC9duLW4ZaAk52">
    <mxGraphModel>
      <root>
        <mxCell id="0" />
        <mxCell id="1" parent="0" />
      </root>
    </mxGraphModel>
  </diagram>
</mxfile>
